<svg width="48" height="38" viewBox="0 0 48 38" fill="none" xmlns="http://www.w3.org/2000/svg">
<path d="M3.09113 10.2564C3.78664 4.59197 8.94243 0.563822 14.6069 1.25933V1.25933C20.2714 1.95484 24.2995 7.11063 23.604 12.7751L21.7723 27.6936C21.0767 33.358 15.921 37.3862 10.2565 36.6907V36.6907C4.59201 35.9952 0.563864 30.8394 1.25937 25.1749L3.09113 10.2564Z" fill="#57AFDB"/>
<path d="M26.2689 9.92099C26.9417 4.44178 31.9288 0.545382 37.408 1.21814L38.079 1.30052C43.5582 1.97328 47.4546 6.96044 46.7818 12.4397V12.4397C46.109 17.9189 41.1219 21.8153 35.6427 21.1425L34.9718 21.0601C29.4925 20.3874 25.5962 15.4002 26.2689 9.92099V9.92099Z" fill="#9FCADF"/>
<path d="M23.9648 28.3697C24.4027 24.8034 27.6487 22.2673 31.215 22.7052L38.8132 23.6382C42.3795 24.076 44.9156 27.3221 44.4777 30.8884V30.8884C44.0398 34.4547 40.7938 36.9907 37.2275 36.5529L29.6293 35.6199C26.063 35.182 23.5269 31.936 23.9648 28.3697V28.3697Z" fill="#168ECA"/>
</svg>
