<svg width="32" height="26" viewBox="0 0 32 26" fill="none" xmlns="http://www.w3.org/2000/svg">
<path d="M2.06071 6.83763C2.52439 3.06131 5.96158 0.375882 9.7379 0.839555V0.839555C13.5142 1.30323 16.1996 4.74042 15.736 8.51674L14.5148 18.4624C14.0511 22.2387 10.6139 24.9241 6.83761 24.4605V24.4605C3.0613 23.9968 0.375868 20.5596 0.839542 16.7833L2.06071 6.83763Z" fill="#57AFDB"/>
<path d="M17.5126 6.61399C17.9611 2.96118 21.2859 0.363588 24.9387 0.812096L25.386 0.867014C29.0388 1.31552 31.6364 4.6403 31.1879 8.2931V8.2931C30.7394 11.9459 27.4146 14.5435 23.7618 14.095L23.3145 14.0401C19.6617 13.5916 17.0641 10.2668 17.5126 6.61399V6.61399Z" fill="#9FCADF"/>
<path d="M15.9766 18.9131C16.2685 16.5355 18.4325 14.8448 20.81 15.1367L25.8755 15.7587C28.253 16.0506 29.9437 18.2146 29.6518 20.5922V20.5922C29.3599 22.9697 27.1959 24.6604 24.8183 24.3685L19.7529 23.7465C17.3753 23.4546 15.6846 21.2906 15.9766 18.9131V18.9131Z" fill="#168ECA"/>
</svg>
